<?xml version="1.0" encoding="utf-8"?>
<!-- Generator: Adobe Illustrator 18.1.1, SVG Export Plug-In . SVG Version: 6.00 Build 0)  -->
<svg version="1.1" id="Layer_1" xmlns="http://www.w3.org/2000/svg" xmlns:xlink="http://www.w3.org/1999/xlink" x="0px" y="0px"
	 viewBox="0 0 612 289" enable-background="new 0 0 612 289" xml:space="preserve">
<g>
	<path fill="#EAAD47" d="M511.7,127.7h-4.1v-1.6l-2-0.7h-12.1v2.5h-1.6v-3.2l-9.6-0.5v-0.7h-1.9v0.6h-1.3l-3.9,1v3.3h-3.8v1.7
		l-1.6,0.1v-1.8l-3.9-0.7v-2.2h-6.4v2h-4.3v1.8h-3.4V160h-2.6v-3.7l-2.7-0.7h-2.7v-2.1l-3-0.8v-15.3l-3.4-0.7h-4.9l-1.4-21.8l-3.4-1
		l-1.2-32.3l-0.7,30.9h-7.5l-1-31.7l-0.8,33.6l-3.3,0.4l-2.3,42.5H410v-5.6l-2.2-0.3l-10,0.5v-0.8h-1.1v-4.1h-0.7v-3.5l-2.1-2.1
		l-1.6,2.2v2.1h-1.6v-2.5l-2-2.4l-1.6,2.6v2.6h-1.6v-2.9l-1.7-2.5l-1.9,3v2.4h-2.8v1.1h-2.6v13.5l0,14.1l-4.5,0V59.4l-0.7-0.5
		l-3.4-1v-0.8l-11.1-2.9l-14.1,1.1v1.6l-7.1,0.5l-1,1v108.4h-2.1v3.3h-4v-49h-0.9v-1.9h-0.9v-2h-0.8v-2.3h-0.7v-3.4L316,97.4l-1-14
		l-0.7,14.3l-9.4,15v2.8h-0.2l-0.6,0.6v1.2l-0.2,0.2l-0.5,0.5v1.1H303l-0.5,0.9v1.1h-0.8v20.7l-3.6-0.1v-1.7l-6.4-0.5l-7.3,0.8
		v-15.3h-0.3v-3.4h-0.5v-5.7h-0.7v1.4h-2.8v-4.5h-1.7v-1h-1.2l-0.6-15.8l-0.3,15.8h-1l-0.6-15.8l-0.3,15.8h-0.2v2h-5V112h-1.8
		l-1.4,0.2l-0.6-16.4l-0.4,16.6l-1.1,0.2l-0.6-16.8l-0.4,16.9l-2.7,0.5v4.8l-2.7,0.2v-1.3H257v9.1h-0.4v20.7l-0.9,1.4v17.9h-1.9
		v-1.2l-1.1-1.1v-15h-1.5v-5.9h-1.9v-1.1h-4v1.1h-1v-1.2H241v0.9l-0.9,0.1v-1.1l-3.6-0.3v0.9c0,0-2.3-0.5-3.2,0.3
		c-0.9,0.9-7.8,0.3-7.8,0.3v0.8h-2.4v27.6h-13.3v3.1h-1.5v2l-0.6-0.6v-9.8v-51.9h-5.3V73.3h-3.3v-1.9h-2.3v-1.3h-1.8v1.4h-1V39.1
		h-2.7l-0.7-19.6l-0.4,19.6h-0.8V38l-1-0.4l-1.3-34.7l-0.7,33.8l-0.3-0.1h-3.4l-0.4,0.2l-1.2-33.9l-0.7,34.9l-1.3,0.7v1.8l-1.1,0.3
		l-0.8-21l-0.5,21.3l-2.1,0.6v30.4l-4.3,1v41.9l-4.4,0.8v50.2h-3.6v3h-7.4v7.2h-2.8v-4.9h-4.8v-33.6h-7.2v-29.8h-1.4v-3.1h-1v-2.3
		h-2.6v1.1h-1.4v-4.8c-4.3-1.5-8.4,0-8.4,0v5.1h-1.3v-1.8h-2.3v2.2h-1.2v4h-1.3v28.1l-2.7,0.9v9.5h-2.6l-13.8,2.6v17.1h-9.4v39.5
		h226.4h197.7v-37.3v-38.5L511.7,127.7z"/>
</g>
<g>
	<path fill="#EAAD47" d="M525.6,227.5h27.7V107.3h-27.7V83.1h50.5v168.6h-50.5V227.5z"/>
</g>
<g>
	<path fill="#EAAD47" d="M88.3,107.3H60.6v120.2h27.7v24.2H37.8V83.1h50.5V107.3z"/>
</g>
<g>
	<path fill="#EAAD47" d="M421.5,249c-2.7-2-1.8-9.3,9.3-15.6c11.1-6.2,12.9-2.2,12.9-2.2v6.7C430.1,255.9,424.1,251,421.5,249z
		 M437.9,237c0,0-5.8,1.6-8.2,6.2C427.3,247.9,435.3,241.2,437.9,237z"/>
	<path fill="#EAAD47" d="M413.2,234.6c0,0,0.1,3.1-3.7,1.8c-3.8-1.3-4.7-2.9-4-4.9c0.7-2-11.3,4.7-18.2,17.6c0,0-3.6,6.9,28-8.5
		c0,0,6.2-1.9,0,4.3c-6.2,6.2-26.2,12.9-28.1,9.1l-3.9-2.7c0,0-4.2-1.2-1.3-6.3c2.9-5.1,24-24.5,30.7-16.3L413.2,234.6z"/>
	<path fill="#EAAD47" d="M470.3,240.9c-4.1,1.2-7.5,6.3-6.1,10.2c1.4,3.9-5.2-0.7-5.2-0.7v-1.8c-3.6,2.2-3.7,2.7-11.4,0
		s7.3-13.8,12.6-17.3c5.3-3.6,7.6-1.3,7.6-1.3s5.8-9.2,8-11.2c2.2-2-0.5-4.7,4.4-6c4.9-1.3,4,1.7,3.6,4.7s-13.4,18-13.4,18
		S474.3,239.7,470.3,240.9z M463.3,237c0,0-9.4,4.3-9.5,7.8S463.3,237,463.3,237z"/>
	<path fill="#EAAD47" d="M511.6,239.1c2.9,4.9-10.2,9.6-16.2,13.3s-13.1,0.7-17.8-5c-4.6-5.8,9.3-18.9,13.5-19.1
		c4.2-0.2,10.2-1.1,8,6.4c-2.2,7.6-13.6,12.7-13.6,12.7C485.6,253.5,511.6,239.1,511.6,239.1z M484.6,241c0,0,0,0.8,0.8,0.3
		c3.3-2.3,11.5-8.1,8.2-8.4C488.3,232.3,484.6,241,484.6,241z"/>
</g>
<g>
	<path fill="#EAAD47" d="M275.3,230c0,0,3.9,0.2,2.6-2.4c-1.3-2.6-1.7-3.4-8.8-1.9c-7.1,1.5-28,11.6-23.3,14.5c4.7,3,6.8,2.4,9,2.1
		c2.1-0.2,14.8-4.5,11.3,2.6c-3.4,7.1-27.6,9-26.1,4.5c1.5-4.5-5.6-1.8-4.9,2.4c0.6,4.2,13.7,8,30.2,0c16.5-8,7.9-12.5,7.9-12.5
		s-3-4.7-16.6-1.3C256.6,238.2,251.6,234.7,275.3,230z"/>
	<path fill="#EAAD47" d="M296.7,236.9c0,0-11,8.6-10.3,6.3c0.6-2,4.6-5.8,4.6-5.8C300.4,232.4,296.7,236.9,296.7,236.9z
		 M291.3,230.9c0,0-0.9-3.6-6.3,1.7c0,0-2.4,5.4-5,6.8c-2.6,1.4-11.6,12.9-9.2,19.3c0,0,4.4,3.6,6,1.9c1.7-1.7,4.9-8.1,4-9.4
		c-0.9-1.3,0.3,2.6,18-9c0,0,7.4-5.8,3.8-9.2S300,230.9,291.3,230.9z"/>
	<path fill="#EAAD47" d="M341.8,238.6c-3.2,1.1-4.7,10.5-2.6,9.9s5.6,5.3,0,3.9c-5.6-1.5-5.1-4.5-5.1-4.5s-0.4,1.3-4.5,3
		c-5,2.2-6.6-0.5-7.3-2.4c-2.2-6.7,8.4-16.2,13.6-16.7c6.8-0.6,5.7,2.4,5.7,2.4C344.8,233.3,345,237.4,341.8,238.6z M335.4,238.2
		c0,0-0.4-3.7-7.5,6.4C323.2,251.2,335.6,240.7,335.4,238.2z"/>
	<path fill="#EAAD47" d="M356.1,239.4l4.7-9c0,0,1.4-5.9-5.6-3.5c-1.2,0.4-2.1,7.7-7.3,14.6s-7.2,10.4-2.3,12.7c0,0,1.7,0.4,2.3-1.6
		s2.1-5.7,3.9-3.9c1.9,1.7,1.2,7.3,19,0.2c0,0,4.7-4,0-3.5c-4.7,0.5-6.4,2.6-13,2.2c-4.6-0.3-3.1-1.2,0-3.1c3.1-1.9,8-4.3,8-4.3
		s4-1.7,1.7-5.2c0,0-1.5-2.1-6.6,2.5C357.3,240.8,356.1,239.4,356.1,239.4z"/>
	<path fill="#EAAD47" d="M310.2,246.8c-2.9,2.4,4.1,1.7,6.6-1.6c2.5-3.3,4.2-2.1,4.2-2.1s1.5,0.6-5.1,6.6c-6.6,6-13.2,0-13.2,0
		s-3.5-6.8,4.8-14.9c8.3-8,11.8-3.3,11.8-3.3c3.2,7.1-4.8,11.8-4.8,11.8S313,244.4,310.2,246.8z M309.5,241.3c0,0,8.5-6.8,4.4-6.1
		C311.3,235.7,307.5,242.2,309.5,241.3"/>
</g>
<g>
	<path fill="#EAAD47" d="M105.6,226.3c0,0,4.6-3.1,6.3,1.2c1.3,3.2-2.5,10.5-4.6,14.1c-0.2,0.3,0.2,0.6,0.4,0.3
		c3-3.2,9.2-9.5,10.7-10.5c2-1.3,6.1-2,5.9,2.9c0,0-1.5,3.5-1.5,4.3c0,1,11.9-18.1,13.4-19.7c0,0,5.1-4.4,6.5,0.2
		c0,0-13.4,21.6-20,32.3c0,0-7.5-1-6.9-4.2c0.6-3.2,0.1-5.8-0.2-5.8c-0.4,0-7.3,9.6-7.3,9.6s-0.9,2.6-8.3-0.9c0,0-2.2-3.5,0.2-6.8
		C102.5,240.3,104.5,232.6,105.6,226.3z"/>
	<path fill="#EAAD47" d="M138.2,249.5l5.4,2.3c0,0,3.9-19.2,18.5-22.2c0,0,2.3-3.7-4.3-2.4c-6.7,1.4-7.2,3.9-7.2,3.9
		s-0.9,1.4-2.2-0.4c-1.3-1.8-4.6,0.3-3.8,1.8c0,0,0.6,1.1,0.2,2.1S137.3,248.1,138.2,249.5z"/>
	<path fill="#EAAD47" d="M190.7,230.4c0,0-8.1,1.6-7.1,3.2s5,0.6,5,0.6s1.5-0.1-0.1,1.5s-8.9,9.4-6.3,12.7s8,2.7,8.7,2.4
		s10.6-8,4.4-8.1c0,0-8,5.6-6.8,2.4c1.2-3.1,4.7-12.7,14.2-12.7c0,0,3.1-2.7-2.9-2.7c0,0-3.9,0.5-4,1.2c0,0-1.6,0.7,3.4-4.7
		c5-5.4-2.8-4.4-3.4-3.5C195.3,223.7,190.2,229.4,190.7,230.4z"/>
	<path fill="#EAAD47" d="M210.7,248.4c5.5,0.3,12.8-4.4,15.6-4.4c2.8,0.1,4.4,5.3-9.5,7.7c-14,2.4-13.6-4.5-8-14.9
		c5.6-10.4,26.3-10.3,16.9-1.4c-9.4,8.9-14.9,7.4-14.9,7.4S205.2,248.1,210.7,248.4z M213.3,238.9c0,0,12.5-5.2,7.7-5
		C216.2,234.2,211,239.9,213.3,238.9z"/>
	<path fill="#EAAD47" d="M169,250.3c0,0-2.3-6.6,6.1-14.7c8.4-8.1-3.7-9.6-4.9-4.6c0,0-7.8,13.3-4.9,18.8
		C168.2,255.2,169,250.3,169,250.3z"/>
	<path fill="#EAAD47" d="M183.7,222.7c0,0,3-0.6-0.6-4c0,0-0.9,0.6-2-0.5c-1.2-1.1-6.6,1.3-2.7,3.7
		C182.4,224.3,183.7,222.7,183.7,222.7z"/>
</g>
<g>
	<path fill="#EAAD47" d="M169.7,277.8c0.9,0,1.6-0.1,2.2-0.4c0.6-0.3,1.3-0.7,1.9-1.4l1.6,1.6c-1.6,1.7-3.4,2.6-5.7,2.6
		c-2.2,0-4.1-0.7-5.5-2.1c-1.5-1.4-2.2-3.2-2.2-5.4s0.7-4,2.2-5.5c1.5-1.5,3.4-2.2,5.7-2.2c2.3,0,4.2,0.8,5.7,2.5l-1.6,1.7
		c-0.7-0.7-1.4-1.1-2-1.4c-0.6-0.3-1.4-0.4-2.2-0.4c-1.5,0-2.7,0.5-3.7,1.4c-1,1-1.5,2.2-1.5,3.7s0.5,2.7,1.5,3.7
		C167.2,277.3,168.4,277.8,169.7,277.8z"/>
	<path fill="#EAAD47" d="M180.6,274v6.1h-2.4v-15.6h2.4v6.4c0.3-0.7,0.8-1.2,1.5-1.6c0.7-0.4,1.4-0.6,2.2-0.6c1.3,0,2.3,0.4,3.1,1.2
		c0.8,0.8,1.2,1.9,1.2,3.3v6.8h-2.4V274c0-2.1-0.9-3.1-2.6-3.1c-0.8,0-1.5,0.3-2.1,0.8C180.9,272.2,180.6,273,180.6,274z"/>
	<path fill="#EAAD47" d="M192.5,266.7c-0.3-0.3-0.4-0.7-0.4-1.1c0-0.4,0.1-0.7,0.4-1c0.3-0.3,0.6-0.4,1.1-0.4c0.4,0,0.8,0.1,1,0.4
		c0.3,0.3,0.4,0.6,0.4,1c0,0.4-0.1,0.8-0.4,1.1c-0.3,0.3-0.6,0.5-1,0.5S192.8,267,192.5,266.7z M194.7,280.1h-2.4v-11.2h2.4V280.1z"
		/>
	<path fill="#EAAD47" d="M208.6,278.2c-1.4,1.4-2.9,2.1-4.7,2.1c-1.6,0-2.9-0.5-4-1.6c-1.1-1.1-1.7-2.4-1.7-4.2
		c0-1.7,0.6-3.1,1.8-4.2c1.2-1.1,2.6-1.6,4.3-1.6c1.7,0,3.1,0.6,4.3,1.7l-1.4,1.7c-1-0.8-1.9-1.3-2.9-1.3c-1,0-1.8,0.3-2.6,1
		c-0.7,0.7-1.1,1.5-1.1,2.5c0,1,0.4,1.9,1.1,2.6c0.7,0.7,1.6,1.1,2.6,1.1c1.1,0,2-0.5,3-1.4L208.6,278.2z"/>
	<path fill="#EAAD47" d="M220.4,280.1h-2.1v-1.5c-0.9,1.1-2.2,1.7-3.7,1.7c-1.2,0-2.1-0.3-2.9-1c-0.8-0.7-1.1-1.5-1.1-2.6
		c0-1.1,0.4-1.9,1.2-2.5c0.8-0.5,1.9-0.8,3.3-0.8h3v-0.4c0-1.5-0.8-2.2-2.5-2.2c-1,0-2.1,0.4-3.2,1.1l-1.1-1.5
		c1.4-1.1,2.9-1.6,4.6-1.6c1.3,0,2.4,0.3,3.2,1c0.8,0.7,1.3,1.7,1.3,3.1V280.1z M218.1,275.9V275h-2.6c-1.7,0-2.5,0.5-2.5,1.6
		c0,0.5,0.2,1,0.6,1.3c0.4,0.3,1,0.4,1.8,0.4c0.7,0,1.4-0.2,2-0.6C217.8,277.2,218.1,276.6,218.1,275.9z"/>
	<path fill="#EAAD47" d="M233.8,268.9v9.8c0,2-0.5,3.5-1.6,4.4c-1.1,1-2.4,1.5-4.1,1.5c-1.7,0-3.2-0.5-4.6-1.6l1.1-1.8
		c1.1,0.8,2.2,1.2,3.3,1.2c1.1,0,2-0.3,2.6-0.9c0.7-0.6,1-1.5,1-2.8v-1.4c-0.4,0.7-0.9,1.2-1.5,1.6c-0.7,0.4-1.4,0.6-2.2,0.6
		c-1.5,0-2.7-0.5-3.7-1.6c-1-1-1.4-2.3-1.4-3.9c0-1.5,0.5-2.8,1.4-3.9c1-1,2.2-1.6,3.6-1.6c1.5,0,2.7,0.6,3.6,1.8v-1.7H233.8z
		 M225.1,274.1c0,0.9,0.3,1.7,0.9,2.4c0.6,0.7,1.3,1,2.3,1c1,0,1.7-0.3,2.3-1c0.6-0.6,0.9-1.4,0.9-2.4c0-1-0.3-1.8-0.9-2.4
		c-0.6-0.7-1.4-1-2.3-1c-1,0-1.7,0.3-2.3,1C225.3,272.3,225.1,273.2,225.1,274.1z"/>
	<path fill="#EAAD47" d="M246.8,278.6c-1.1,1.1-2.5,1.7-4.2,1.7c-1.7,0-3.1-0.6-4.2-1.7c-1.1-1.1-1.7-2.5-1.7-4.1
		c0-1.6,0.6-3,1.7-4.1c1.1-1.1,2.5-1.7,4.2-1.7c1.7,0,3.1,0.6,4.2,1.7c1.1,1.1,1.7,2.5,1.7,4.1C248.5,276.1,247.9,277.5,246.8,278.6
		z M240.1,277.1c0.7,0.7,1.5,1,2.5,1c1,0,1.9-0.3,2.5-1c0.7-0.7,1-1.6,1-2.6c0-1.1-0.3-2-1-2.6c-0.7-0.7-1.5-1-2.5-1
		c-1,0-1.9,0.3-2.5,1c-0.7,0.7-1,1.6-1,2.6C239.1,275.6,239.4,276.5,240.1,277.1z"/>
	<path fill="#EAAD47" d="M255,274.6c-0.3-0.3-0.5-0.7-0.5-1.1c0-0.4,0.2-0.8,0.5-1.1c0.3-0.3,0.7-0.5,1.1-0.5c0.4,0,0.8,0.2,1.1,0.5
		c0.3,0.3,0.5,0.7,0.5,1.1c0,0.4-0.2,0.8-0.5,1.1c-0.3,0.3-0.7,0.5-1.1,0.5C255.7,275.1,255.3,275,255,274.6z M255,279.8
		c-0.3-0.3-0.5-0.7-0.5-1.1s0.2-0.8,0.5-1.1c0.3-0.3,0.7-0.5,1.1-0.5c0.4,0,0.8,0.2,1.1,0.5c0.3,0.3,0.5,0.7,0.5,1.1
		s-0.2,0.8-0.5,1.1c-0.3,0.3-0.7,0.5-1.1,0.5C255.7,280.3,255.3,280.1,255,279.8z"/>
	<path fill="#EAAD47" d="M265.9,267.6v-2.2h7.1v9.7c0,1.7-0.4,3-1.3,3.8c-0.9,0.9-2,1.3-3.3,1.3c-1.7,0-3.2-0.6-4.4-1.8l1.4-2
		c1,0.9,1.9,1.4,2.8,1.4c0.6,0,1.2-0.2,1.6-0.7c0.5-0.4,0.7-1.1,0.7-2v-7.6H265.9z"/>
	<path fill="#EAAD47" d="M284.3,275v-6.1h2.4v11.2h-2.4v-2c-0.4,0.7-0.9,1.2-1.6,1.6c-0.7,0.4-1.4,0.6-2.2,0.6
		c-1.3,0-2.3-0.4-3.1-1.2c-0.8-0.8-1.2-1.9-1.2-3.3v-6.8h2.4v6.1c0,2.1,0.9,3.1,2.6,3.1c0.8,0,1.5-0.3,2.1-0.8
		C284,276.8,284.3,276,284.3,275z"/>
	<path fill="#EAAD47" d="M292.8,274v6.1h-2.4v-11.2h2.4v2c0.4-0.7,0.9-1.2,1.6-1.6c0.7-0.4,1.4-0.6,2.2-0.6c1.3,0,2.3,0.4,3.1,1.2
		c0.8,0.8,1.2,1.9,1.2,3.3v6.8h-2.4V274c0-2.1-0.9-3.1-2.6-3.1c-0.8,0-1.5,0.3-2.1,0.8C293.1,272.2,292.8,273,292.8,274z"/>
	<path fill="#EAAD47" d="M314.7,275.5h-8.8c0.1,0.8,0.4,1.5,1.1,2c0.7,0.5,1.5,0.7,2.4,0.7c1.4,0,2.5-0.4,3.2-1.3l1.3,1.5
		c-1.2,1.2-2.8,1.9-4.7,1.9c-1.6,0-2.9-0.5-4-1.6c-1.1-1-1.6-2.4-1.6-4.2c0-1.8,0.6-3.2,1.7-4.2c1.1-1,2.4-1.6,4-1.6
		c1.5,0,2.8,0.5,3.9,1.4s1.6,2.2,1.6,3.8V275.5z M305.9,273.7h6.4c0-0.9-0.3-1.7-0.9-2.2c-0.6-0.5-1.3-0.8-2.2-0.8
		c-0.9,0-1.6,0.3-2.3,0.8C306.3,272.1,305.9,272.8,305.9,273.7z"/>
	<path fill="#EAAD47" d="M321.9,265.4h5.3v14.7h-2.4v-12.5h-3V265.4z"/>
	<path fill="#EAAD47" d="M341.6,265.4v2.2h-6.2v3.6c0.6-0.3,1.3-0.5,2.1-0.5c1.4,0,2.6,0.4,3.6,1.2c1,0.8,1.5,1.9,1.5,3.4
		c0,1.4-0.5,2.6-1.6,3.5s-2.3,1.4-3.8,1.4c-2,0-3.6-0.7-4.7-2l1.3-1.8c0.1,0.1,0.3,0.2,0.5,0.4c0.2,0.2,0.6,0.4,1.2,0.6
		c0.6,0.3,1.2,0.4,1.9,0.4c0.7,0,1.3-0.2,1.9-0.6c0.6-0.4,0.9-1,0.9-1.8c0-0.8-0.3-1.4-0.9-1.9c-0.6-0.4-1.4-0.7-2.3-0.7
		c-0.9,0-1.8,0.2-2.7,0.7l-1.1-1.1v-7.1H341.6z"/>
	<path fill="#EAAD47" d="M349.4,274.9v-2.2h7v2.2H349.4z"/>
	<path fill="#EAAD47" d="M364.1,265.4h5.3v14.7h-2.4v-12.5h-3V265.4z"/>
	<path fill="#EAAD47" d="M376.1,266.2c0.9-0.7,2.1-1.1,3.5-1.1c1.4,0,2.6,0.4,3.5,1.1c0.9,0.7,1.4,1.7,1.4,2.8s-0.5,2.1-1.6,3
		c1.4,0.9,2.1,2.2,2.1,3.8c0,1.3-0.5,2.3-1.5,3.2c-1,0.9-2.3,1.3-4,1.3c-1.6,0-3-0.4-4-1.3c-1-0.9-1.5-1.9-1.5-3.2
		c0-1.6,0.7-2.9,2.1-3.8c-1.1-0.9-1.6-1.9-1.6-3S375.2,267,376.1,266.2z M377.6,277.5c0.6,0.4,1.3,0.6,2.1,0.6
		c0.7,0,1.4-0.2,2.1-0.6c0.6-0.4,1-1,1-1.8c0-0.8-0.3-1.4-0.9-1.8s-1.3-0.6-2.1-0.6c-0.8,0-1.5,0.2-2.1,0.6s-0.9,1-0.9,1.8
		C376.6,276.5,377,277.1,377.6,277.5z M377.8,270.8c0.5,0.4,1.1,0.6,1.9,0.6c0.7,0,1.3-0.2,1.9-0.6c0.5-0.4,0.8-1,0.8-1.6
		c0-0.6-0.3-1.1-0.8-1.6c-0.5-0.4-1.1-0.6-1.9-0.6c-0.7,0-1.3,0.2-1.9,0.6c-0.5,0.4-0.8,0.9-0.8,1.6
		C377,269.9,377.3,270.4,377.8,270.8z"/>
	<path fill="#EAAD47" d="M387.2,282.3l0.8-2.2c-0.6-0.3-0.9-0.7-0.9-1.4c0-0.4,0.2-0.8,0.5-1.1c0.3-0.3,0.7-0.5,1.1-0.5
		s0.8,0.2,1.1,0.5c0.3,0.3,0.5,0.7,0.5,1.1s-0.2,0.9-0.6,1.5l-1.3,2.1H387.2z"/>
	<path fill="#EAAD47" d="M403.2,271.1c0.4-0.6,0.6-1.2,0.6-1.7s-0.2-1.1-0.7-1.5c-0.4-0.4-1-0.6-1.7-0.6c-1.2,0-2.2,0.6-3,1.8
		l-2-1.2c0.6-1,1.4-1.7,2.1-2.2c0.8-0.5,1.8-0.7,3-0.7s2.3,0.4,3.2,1.2c0.9,0.8,1.4,1.8,1.4,3.2c0,0.8-0.2,1.5-0.6,2.2
		c-0.4,0.7-1.1,1.6-2.2,2.6l-3.4,3.5h6.7v2.4h-10V278l4.5-4.5C402.1,272.5,402.8,271.7,403.2,271.1z"/>
	<path fill="#EAAD47" d="M410.1,278.2c-1-1.4-1.5-3.2-1.5-5.5c0-2.3,0.5-4.2,1.5-5.5c1-1.4,2.5-2.1,4.5-2.1s3.5,0.7,4.5,2.1
		s1.5,3.2,1.5,5.5c0,2.3-0.5,4.2-1.5,5.5s-2.5,2.1-4.5,2.1S411.1,279.6,410.1,278.2z M411.9,268.7c-0.6,1-0.9,2.3-0.9,4
		c0,1.6,0.3,3,0.9,4c0.6,1,1.5,1.5,2.7,1.5s2.1-0.5,2.7-1.5c0.6-1,0.9-2.3,0.9-4s-0.3-3-0.9-4c-0.6-1-1.5-1.5-2.7-1.5
		S412.5,267.7,411.9,268.7z"/>
	<path fill="#EAAD47" d="M423,265.4h5.3v14.7H426v-12.5h-3V265.4z"/>
	<path fill="#EAAD47" d="M443.3,266.6l-1.2,1.8c-0.3-0.3-0.8-0.5-1.3-0.8c-0.5-0.2-1-0.3-1.4-0.3c-1.3,0-2.3,0.4-2.9,1.3
		c-0.6,0.9-0.9,2.1-0.9,3.6c0.4-0.4,0.9-0.8,1.5-1.1c0.7-0.3,1.4-0.5,2.2-0.5c1.3,0,2.4,0.4,3.3,1.3c0.9,0.9,1.3,2,1.3,3.5
		c0,1.4-0.5,2.6-1.4,3.5c-1,0.9-2.2,1.3-3.6,1.3c-2.4,0-4-1.1-4.9-3.2c-0.5-1.2-0.8-2.6-0.8-4.1s0.2-2.8,0.5-3.8
		c0.3-1,0.8-1.8,1.3-2.4c1.1-1.1,2.4-1.7,4-1.7C440.6,265.1,442,265.6,443.3,266.6z M438.9,272.8c-0.8,0-1.6,0.2-2.1,0.7
		c-0.6,0.5-0.9,1.1-0.9,1.8s0.3,1.4,0.8,1.9c0.5,0.5,1.2,0.8,2.1,0.8c0.8,0,1.5-0.2,2.1-0.7c0.5-0.5,0.8-1.1,0.8-1.8
		s-0.3-1.4-0.8-1.9C440.4,273.1,439.8,272.8,438.9,272.8z"/>
</g>
</svg>
