<?xml version="1.0" encoding="utf-8"?>
<!-- Generator: Adobe Illustrator 18.1.1, SVG Export Plug-In . SVG Version: 6.00 Build 0)  -->
<svg version="1.1" id="Layer_1" xmlns="http://www.w3.org/2000/svg" xmlns:xlink="http://www.w3.org/1999/xlink" x="0px" y="0px"
	 viewBox="0 0 612 289" enable-background="new 0 0 612 289" xml:space="preserve">
<g>
	<g>
		<path fill="#EAAD47" d="M512.7,137.6h-4.1V136l-2-0.7h-12.1v2.5h-1.6v-3.2l-9.6-0.5v-0.7h-1.9v0.6h-1.3l-3.9,1v3.3h-3.8v1.7
			l-1.6,0.1v-1.8l-3.9-0.7v-2.2h-6.4v2h-4.3v1.8h-3.4v30.7h-2.6v-3.7l-2.7-0.7h-2.7v-2.1l-3-0.8v-15.3l-3.4-0.7h-4.9l-1.4-21.8
			l-3.4-1l-1.2-32.3l-0.7,30.9h-7.5l-1-31.7l-0.8,33.6l-3.3,0.4l-2.3,42.5H411v-5.6l-2.2-0.3l-10,0.5v-0.8h-1.1v-4.1h-0.7v-3.5
			l-2.1-2.1l-1.6,2.2v2.1h-1.6v-2.5l-2-2.4l-1.6,2.6v2.6h-1.6v-2.9l-1.7-2.5l-1.9,3v2.4h-2.8v1.1h-2.6v13.5l0,14.1l-4.5,0V69.3
			l-0.7-0.5l-3.4-1V67l-11.1-2.9l-14.1,1.1v1.6l-7.1,0.5l-1,1v108.4h-2.1v3.3h-4v-49h-0.9v-1.9h-0.9v-2h-0.8v-2.3h-0.7v-3.4
			l-9.1-14.2l-1-14l-0.7,14.3l-9.4,15v2.8h-0.2l-0.6,0.6v1.2l-0.2,0.2l-0.5,0.5v1.1H304l-0.5,0.9v1.1h-0.8v20.7l-3.6-0.1v-1.7
			l-6.4-0.5l-7.3,0.8v-15.3h-0.3v-3.4h-0.5v-5.7h-0.7v1.4h-2.8v-4.5h-1.7v-1h-1.2l-0.6-15.8l-0.3,15.8h-1l-0.6-15.8l-0.3,15.8h-0.2
			v2h-5v-1.6h-1.8l-1.4,0.2l-0.6-16.4l-0.4,16.6l-1.1,0.2l-0.6-16.8l-0.4,16.9l-2.7,0.5v4.8l-2.7,0.2v-1.3H258v9.1h-0.4v20.7
			l-0.9,1.4v17.9h-1.9v-1.2l-1.1-1.1v-15h-1.5v-5.9h-1.9v-1.1h-4v1.1h-1v-1.2H242v0.9l-0.9,0.1v-1.1l-3.6-0.3v0.9
			c0,0-2.3-0.5-3.2,0.3c-0.9,0.9-7.8,0.3-7.8,0.3v0.8h-2.4v27.6h-13.3v3.1h-1.5v2l-0.6-0.6v-9.8v-51.9h-5.3V83.2h-3.3v-1.9h-2.3
			v-1.3h-1.8v1.4h-1V49h-2.7l-0.7-19.6L191.4,49h-0.8v-1.1l-1-0.4l-1.3-34.7l-0.7,33.8l-0.3-0.1h-3.4l-0.4,0.2l-1.2-33.9l-0.7,34.9
			l-1.3,0.7v1.8l-1.1,0.3l-0.8-21l-0.5,21.3l-2.1,0.6v30.4l-4.3,1v41.9l-4.4,0.8v50.2h-3.6v3h-7.4v7.2h-2.8v-4.9h-4.8v-33.6h-7.2
			v-29.8h-1.4v-3.1h-1v-2.3h-2.6v1.1h-1.4v-4.8c-4.3-1.5-8.4,0-8.4,0v5.1h-1.3v-1.8h-2.3v2.2h-1.2v4h-1.3v28.1l-2.7,0.9v9.5h-2.6
			l-13.8,2.6v17.1h-9.4v39.5h226.4h197.7v-37.3v-38.5L512.7,137.6z"/>
	</g>
	<g>
		<path fill="#EAAD47" d="M526.6,237.4h27.7V117.2h-27.7V93h50.5v168.6h-50.5V237.4z"/>
	</g>
	<g>
		<path fill="#EAAD47" d="M89.3,117.2H61.6v120.2h27.7v24.2H38.8V93h50.5V117.2z"/>
	</g>
	<g>
		<g>
			<path fill="#FFFFFF" d="M470.3,199.9c-3.8-2.8-2.5-13.2,13.2-22c15.7-8.8,18.2-3.1,18.2-3.1v9.4
				C482.6,209.6,474.1,202.7,470.3,199.9z M493.5,182.9c0,0-8.2,2.2-11.6,8.8C478.5,198.3,489.8,188.9,493.5,182.9z"/>
			<path fill="#FFFFFF" d="M458.7,179.5c0,0,0.1,4.4-5.3,2.5c-5.4-1.9-6.6-4.1-5.7-6.9s-16,6.6-25.7,24.8c0,0-5,9.7,39.6-11.9
				c0,0,8.8-2.7,0,6s-37.1,18.2-39.7,12.8l-5.5-3.9c0,0-6-1.7-1.9-8.9s33.9-34.6,43.3-23L458.7,179.5z"/>
			<path fill="#FFFFFF" d="M539.2,188.4c-5.8,1.8-10.6,8.9-8.6,14.5c2,5.5-7.4-1.1-7.4-1.1v-2.6c-5.1,3.1-5.2,3.8-16.1,0
				c-10.9-3.8,10.3-19.5,17.8-24.5s10.7-1.8,10.7-1.8s8.2-13,11.3-15.8s-0.6-6.6,6.3-8.4c6.9-1.8,5.6,2.5,5,6.6
				c-0.6,4.1-18.9,25.4-18.9,25.4S545,186.7,539.2,188.4z M529.4,182.9c0,0-13.2,6.1-13.4,11C515.8,198.9,529.4,182.9,529.4,182.9z"
				/>
			<path fill="#FFFFFF" d="M597.6,185.8c4.1,6.9-14.4,13.5-22.9,18.7s-18.5,1-25.1-7.1c-6.6-8.2,13.1-26.7,19.1-27
				c6-0.3,14.4-1.6,11.3,9.1s-19.2,17.9-19.2,17.9C560.8,206.2,597.6,185.8,597.6,185.8z M559.4,188.6c0,0-0.1,1.2,1.1,0.4
				c4.7-3.2,16.2-11.4,11.6-11.9C564.6,176.2,559.4,188.6,559.4,188.6z"/>
		</g>
	</g>
	<g>
		<g>
			<path fill="#FFFFFF" d="M263.9,173.1c0,0,5.4,0.3,3.6-3.3c-1.8-3.6-2.4-4.8-12.4-2.7c-10,2.1-39.6,16.3-32.9,20.5
				c6.6,4.2,9.7,3.3,12.7,3c3-0.3,20.8-6.3,16,3.6c-4.8,10-39,12.7-36.9,6.3c2.1-6.3-7.8-2.5-6.9,3.4s19.3,11.3,42.6,0
				s11.2-17.6,11.2-17.6s-4.2-6.6-23.4-1.8C237.4,184.6,230.3,179.7,263.9,173.1z"/>
			<path fill="#FFFFFF" d="M294.1,182.7c0,0-15.5,12.1-14.5,8.9c0.9-2.9,6.5-8.2,6.5-8.2C299.2,176.4,294.1,182.7,294.1,182.7z
				 M286.5,174.3c0,0-1.2-5.1-8.9,2.4c0,0-3.4,7.6-7.1,9.6c-3.6,1.9-16.3,18.2-13,27.3c0,0,6.2,5.1,8.5,2.7
				c2.3-2.4,6.9-11.5,5.7-13.3c-1.2-1.8,0.4,3.6,25.4-12.7c0,0,10.5-8.2,5.4-13C297.4,172.5,298.8,174.3,286.5,174.3z"/>
			<path fill="#FFFFFF" d="M357.8,185.1c-4.5,1.6-6.7,14.8-3.7,13.9c3-0.9,7.9,7.6,0,5.5c-7.9-2.1-7.2-6.4-7.2-6.4s-0.6,1.8-6.4,4.3
				c-7.1,3.1-9.4-0.6-10.3-3.4c-3.2-9.5,11.9-22.9,19.2-23.5c9.6-0.9,8,3.4,8,3.4C362,177.6,362.3,183.5,357.8,185.1z M348.7,184.6
				c0,0-0.5-5.2-10.6,9C331.5,202.9,349,188.2,348.7,184.6z"/>
			<path fill="#FFFFFF" d="M378,186.3l6.6-12.7c0,0,1.9-8.3-7.9-5c-1.8,0.6-3,10.9-10.3,20.7c-7.2,9.8-10.2,14.7-3.3,18
				c0,0,2.3,0.6,3.3-2.3c0.9-2.9,2.9-8,5.6-5.6s1.7,10.3,26.8,0.3c0,0,6.6-5.6,0-4.9s-9.1,3.7-18.3,3.1c-6.5-0.4-4.4-1.7,0-4.3
				c4.4-2.6,11.4-6,11.4-6s5.6-2.4,2.3-7.4c0,0-2.1-3-9.3,3.5C379.6,188.3,378,186.3,378,186.3z"/>
			<path fill="#FFFFFF" d="M313.1,196.7c-4,3.3,5.9,2.4,9.3-2.2s5.9-2.9,5.9-2.9s2.1,0.9-7.3,9.4s-18.6,0-18.6,0s-5-9.7,6.7-21
				s16.7-4.7,16.7-4.7c4.5,10-6.8,16.6-6.8,16.6S317.1,193.4,313.1,196.7z M312.1,189c0,0,12-9.6,6.2-8.6
				C314.7,181,309.3,190.2,312.1,189"/>
		</g>
	</g>
	<g>
		<g>
			<path fill="#FFFFFF" d="M24.1,167.8c0,0,6.5-4.3,8.9,1.7c1.8,4.5-3.5,14.8-6.5,20c-0.2,0.4,0.3,0.8,0.6,0.5
				c4.3-4.5,12.9-13.4,15.1-14.8c2.9-1.8,8.7-2.8,8.3,4.1c0,0-2.1,5-2.1,6c0,1.4,16.8-25.6,19-27.9c0,0,7.3-6.2,9.2,0.2
				c0,0-18.9,30.6-28.3,45.7c0,0-10.6-1.4-9.8-5.9c0.9-4.5,0.2-8.2-0.3-8.2c-0.6,0-10.3,13.6-10.3,13.6s-1.2,3.7-11.8-1.2
				c0,0-3.1-4.9,0.2-9.5C19.7,187.5,22.6,176.8,24.1,167.8z"/>
			<path fill="#FFFFFF" d="M70.2,200.5l7.6,3.2c0,0,5.6-27.2,26.2-31.4c0,0,3.3-5.2-6.1-3.3c-9.4,1.9-10.2,5.4-10.2,5.4
				s-1.2,2-3.1-0.5c-1.9-2.6-6.6,0.5-5.4,2.6c0,0,0.9,1.5,0.3,3C78.9,180.9,69,198.6,70.2,200.5z"/>
			<path fill="#FFFFFF" d="M144.4,173.5c0,0-11.5,2.2-10,4.5c1.4,2.3,7,0.8,7,0.8s2.1-0.1-0.1,2.1c-2.2,2.2-12.5,13.2-8.9,17.9
				c3.6,4.7,11.3,3.8,12.4,3.4c1-0.4,15-11.3,6.2-11.4c0,0-11.2,7.9-9.5,3.4c1.7-4.4,6.6-18,20-17.9c0,0,4.4-3.8-4.1-3.8
				c0,0-5.4,0.7-5.7,1.7c0,0-2.3,1,4.9-6.7c7.1-7.7-4-6.3-4.7-4.9S143.6,172.1,144.4,173.5z"/>
			<path fill="#FFFFFF" d="M172.6,199c7.7,0.4,18.1-6.3,22.1-6.2c3.9,0.1,6.3,7.5-13.5,10.9c-19.7,3.4-19.2-6.4-11.2-21
				c8-14.6,37.1-14.5,23.9-2c-13.2,12.6-21,10.5-21,10.5S164.9,198.6,172.6,199z M176.3,185.6c0,0,17.6-7.4,10.8-7
				C180.4,179,173,187,176.3,185.6z"/>
			<path fill="#FFFFFF" d="M113.6,201.7c0,0-3.2-9.3,8.6-20.8s-5.2-13.5-6.9-6.4c0,0-11.1,18.8-6.9,26.5
				C112.6,208.6,113.6,201.7,113.6,201.7z"/>
			<path fill="#FFFFFF" d="M134.5,162.8c0,0,4.2-0.8-0.8-5.7c0,0-1.2,0.8-2.9-0.6c-1.6-1.5-9.3,1.8-3.7,5.2
				C132.6,165,134.5,162.8,134.5,162.8z"/>
		</g>
	</g>
	<g>
		<path fill="#FFFFFF" d="M114.7,260.2c1.2,0,2.2-0.2,3.1-0.6c0.9-0.4,1.8-1.1,2.7-1.9l2.3,2.3c-2.2,2.4-4.9,3.7-8,3.7
			c-3.1,0-5.7-1-7.8-3c-2.1-2-3.1-4.6-3.1-7.7s1.1-5.7,3.2-7.7c2.1-2.1,4.8-3.1,8-3.1c3.2,0,5.9,1.2,8.1,3.6l-2.2,2.4
			c-1-0.9-1.9-1.6-2.8-2c-0.9-0.4-1.9-0.6-3.1-0.6c-2.1,0-3.9,0.7-5.3,2c-1.4,1.4-2.1,3.1-2.1,5.2s0.7,3.9,2.1,5.3
			C111.1,259.5,112.8,260.2,114.7,260.2z"/>
		<path fill="#FFFFFF" d="M130,254.8v8.5h-3.3v-22h3.3v9.1c0.5-1,1.2-1.7,2.2-2.3c1-0.6,2-0.8,3.1-0.8c1.8,0,3.2,0.5,4.3,1.6
			c1.1,1.1,1.6,2.7,1.6,4.7v9.7h-3.3v-8.7c0-2.9-1.2-4.4-3.6-4.4c-1.1,0-2.1,0.4-3,1.1C130.4,252.3,130,253.4,130,254.8z"/>
		<path fill="#FFFFFF" d="M146.9,244.5c-0.4-0.4-0.6-0.9-0.6-1.5c0-0.6,0.2-1.1,0.6-1.5c0.4-0.4,0.9-0.6,1.5-0.6
			c0.6,0,1.1,0.2,1.5,0.6c0.4,0.4,0.6,0.9,0.6,1.5c0,0.6-0.2,1.1-0.6,1.5c-0.4,0.4-0.9,0.6-1.5,0.6S147.3,244.9,146.9,244.5z
			 M150,263.4h-3.3v-15.8h3.3V263.4z"/>
		<path fill="#FFFFFF" d="M169.7,260.7c-1.9,1.9-4.1,2.9-6.6,2.9c-2.2,0-4.1-0.7-5.7-2.2c-1.6-1.5-2.4-3.4-2.4-5.9
			c0-2.4,0.8-4.4,2.5-5.9c1.7-1.5,3.7-2.3,6-2.3c2.4,0,4.4,0.8,6,2.5l-2,2.4c-1.4-1.2-2.7-1.8-4.1-1.8c-1.4,0-2.6,0.5-3.6,1.4
			c-1,0.9-1.5,2.1-1.5,3.6c0,1.5,0.5,2.7,1.5,3.7c1,1,2.2,1.5,3.7,1.5c1.5,0,2.9-0.7,4.2-2L169.7,260.7z"/>
		<path fill="#FFFFFF" d="M186.3,263.4h-3v-2.1c-1.3,1.6-3.1,2.3-5.3,2.3c-1.6,0-3-0.5-4.1-1.4c-1.1-0.9-1.6-2.2-1.6-3.7
			c0-1.6,0.6-2.7,1.7-3.5c1.1-0.8,2.7-1.2,4.7-1.2h4.3v-0.6c0-2.1-1.2-3.1-3.5-3.1c-1.5,0-3,0.5-4.6,1.6l-1.5-2.1
			c1.9-1.5,4.1-2.3,6.5-2.3c1.9,0,3.4,0.5,4.6,1.4c1.2,0.9,1.8,2.4,1.8,4.4V263.4z M183,257.5v-1.3h-3.7c-2.4,0-3.6,0.8-3.6,2.3
			c0,0.8,0.3,1.4,0.9,1.8c0.6,0.4,1.4,0.6,2.5,0.6c1.1,0,2-0.3,2.8-0.9C182.6,259.3,183,258.5,183,257.5z"/>
		<path fill="#FFFFFF" d="M205.2,247.6v13.8c0,2.8-0.8,4.9-2.3,6.3c-1.5,1.4-3.5,2.1-5.8,2.1c-2.4,0-4.5-0.7-6.4-2.2l1.6-2.5
			c1.5,1.2,3.1,1.8,4.7,1.8c1.6,0,2.8-0.4,3.7-1.2c0.9-0.8,1.4-2.1,1.4-3.9v-2c-0.5,0.9-1.2,1.7-2.1,2.2c-0.9,0.6-2,0.8-3.1,0.8
			c-2.1,0-3.8-0.7-5.2-2.2c-1.3-1.5-2-3.3-2-5.5s0.7-4,2-5.5c1.3-1.5,3.1-2.2,5.1-2.2c2.1,0,3.8,0.9,5.1,2.6v-2.3H205.2z
			 M192.9,254.9c0,1.3,0.4,2.4,1.2,3.4c0.8,0.9,1.9,1.4,3.2,1.4c1.4,0,2.5-0.5,3.3-1.4c0.8-0.9,1.3-2,1.3-3.4c0-1.4-0.4-2.5-1.3-3.4
			c-0.9-0.9-1.9-1.4-3.3-1.4c-1.3,0-2.4,0.5-3.2,1.5C193.3,252.5,192.9,253.6,192.9,254.9z"/>
		<path fill="#FFFFFF" d="M223.6,261.3c-1.6,1.6-3.6,2.4-5.9,2.4c-2.4,0-4.4-0.8-5.9-2.4c-1.6-1.6-2.4-3.5-2.4-5.8
			c0-2.3,0.8-4.2,2.4-5.8c1.6-1.6,3.6-2.4,5.9-2.4c2.4,0,4.4,0.8,5.9,2.4c1.6,1.6,2.4,3.5,2.4,5.8
			C226,257.8,225.2,259.7,223.6,261.3z M214.1,259.2c0.9,1,2.1,1.4,3.6,1.4s2.6-0.5,3.6-1.4c0.9-1,1.4-2.2,1.4-3.7
			c0-1.5-0.5-2.8-1.4-3.7c-0.9-1-2.1-1.4-3.6-1.4s-2.6,0.5-3.6,1.4c-0.9,1-1.4,2.2-1.4,3.7C212.7,257,213.1,258.3,214.1,259.2z"/>
		<path fill="#FFFFFF" d="M235.2,255.7c-0.4-0.4-0.6-1-0.6-1.6c0-0.6,0.2-1.1,0.6-1.6c0.4-0.4,0.9-0.6,1.6-0.6
			c0.6,0,1.1,0.2,1.6,0.6c0.4,0.4,0.7,0.9,0.7,1.6c0,0.6-0.2,1.1-0.7,1.6c-0.4,0.4-1,0.7-1.6,0.7
			C236.1,256.4,235.6,256.1,235.2,255.7z M235.2,263c-0.4-0.4-0.6-1-0.6-1.6s0.2-1.1,0.6-1.6c0.4-0.4,0.9-0.6,1.6-0.6
			c0.6,0,1.1,0.2,1.6,0.6c0.4,0.4,0.7,0.9,0.7,1.6s-0.2,1.1-0.7,1.6c-0.4,0.4-1,0.7-1.6,0.7C236.1,263.6,235.6,263.4,235.2,263z"/>
		<path fill="#FFFFFF" d="M250.5,245.8v-3.1h10.1v13.7c0,2.4-0.6,4.2-1.8,5.4c-1.2,1.2-2.8,1.8-4.7,1.8c-2.4,0-4.5-0.9-6.2-2.6
			l2-2.8c1.3,1.3,2.7,1.9,3.9,1.9c0.9,0,1.7-0.3,2.3-0.9c0.6-0.6,1-1.5,1-2.8v-10.7H250.5z"/>
		<path fill="#FFFFFF" d="M276.5,256.2v-8.5h3.3v15.8h-3.3v-2.9c-0.5,1-1.3,1.7-2.2,2.3c-0.9,0.6-2,0.8-3,0.8
			c-1.8,0-3.2-0.5-4.3-1.6c-1.1-1.1-1.6-2.7-1.6-4.7v-9.7h3.3v8.7c0,2.9,1.2,4.4,3.6,4.4c1.1,0,2.1-0.4,3-1.1
			C276.1,258.7,276.5,257.6,276.5,256.2z"/>
		<path fill="#FFFFFF" d="M288.5,254.8v8.5h-3.3v-15.8h3.3v2.9c0.5-1,1.3-1.7,2.2-2.3c0.9-0.6,2-0.8,3-0.8c1.8,0,3.2,0.5,4.3,1.6
			c1.1,1.1,1.6,2.7,1.6,4.7v9.7h-3.3v-8.7c0-2.9-1.2-4.4-3.6-4.4c-1.1,0-2.1,0.4-3,1.1C289,252.3,288.5,253.4,288.5,254.8z"/>
		<path fill="#FFFFFF" d="M319.5,257h-12.4c0.1,1.1,0.6,2.1,1.6,2.8c1,0.7,2.1,1.1,3.3,1.1c2,0,3.5-0.6,4.5-1.9l1.9,2.1
			c-1.7,1.8-3.9,2.6-6.6,2.6c-2.2,0-4.1-0.7-5.7-2.2c-1.6-1.5-2.3-3.5-2.3-5.9c0-2.5,0.8-4.5,2.4-5.9c1.6-1.5,3.4-2.2,5.6-2.2
			c2.1,0,4,0.6,5.5,1.9s2.3,3.1,2.3,5.4V257z M307.1,254.3h9.1c0-1.3-0.4-2.3-1.2-3.1c-0.8-0.7-1.9-1.1-3.1-1.1
			c-1.2,0-2.3,0.4-3.3,1.1C307.6,252.1,307.1,253.1,307.1,254.3z"/>
		<path fill="#FFFFFF" d="M329.7,242.6h7.5v20.7h-3.3v-17.6h-4.2V242.6z"/>
		<path fill="#FFFFFF" d="M357.5,242.6v3.2h-8.8v5.1c0.9-0.5,1.9-0.7,3-0.7c1.9,0,3.6,0.6,5,1.8c1.4,1.2,2.1,2.8,2.1,4.7
			c0,2-0.7,3.7-2.2,5c-1.5,1.3-3.3,2-5.4,2c-2.8,0-5-0.9-6.7-2.8l1.9-2.6c0.2,0.2,0.4,0.3,0.6,0.6c0.3,0.2,0.8,0.5,1.6,0.9
			c0.8,0.4,1.7,0.5,2.7,0.5c1,0,1.9-0.3,2.7-0.9c0.8-0.6,1.2-1.5,1.2-2.6c0-1.1-0.4-2-1.3-2.6c-0.9-0.6-1.9-0.9-3.3-0.9
			c-1.3,0-2.6,0.3-3.8,1l-1.5-1.6v-10H357.5z"/>
		<path fill="#FFFFFF" d="M368.5,256.1V253h9.9v3.1H368.5z"/>
		<path fill="#FFFFFF" d="M389.3,242.6h7.5v20.7h-3.3v-17.6h-4.2V242.6z"/>
		<path fill="#FFFFFF" d="M406.3,243.8c1.3-1,3-1.6,5-1.6c2,0,3.7,0.5,5,1.6c1.3,1,2,2.4,2,4s-0.7,3-2.2,4.2c2,1.3,3,3,3,5.3
			c0,1.8-0.7,3.3-2.1,4.5c-1.4,1.2-3.3,1.8-5.6,1.8s-4.2-0.6-5.6-1.8c-1.4-1.2-2.1-2.7-2.1-4.5c0-2.3,1-4.1,3-5.3
			c-1.5-1.2-2.2-2.6-2.2-4.2S404.9,244.9,406.3,243.8z M408.3,259.7c0.9,0.6,1.9,0.9,2.9,0.9c1,0,2-0.3,2.9-0.9
			c0.9-0.6,1.4-1.4,1.4-2.5c0-1.1-0.4-1.9-1.3-2.5s-1.9-0.9-3-0.9c-1.1,0-2.1,0.3-3,0.9s-1.3,1.4-1.3,2.5
			C407,258.3,407.4,259.1,408.3,259.7z M408.6,250.3c0.7,0.6,1.6,0.9,2.6,0.9c1,0,1.9-0.3,2.6-0.9c0.7-0.6,1.1-1.3,1.1-2.2
			c0-0.9-0.4-1.6-1.1-2.2c-0.7-0.6-1.6-0.9-2.6-0.9c-1,0-1.9,0.3-2.6,0.9c-0.7,0.6-1.1,1.3-1.1,2.2
			C407.5,248.9,407.9,249.7,408.6,250.3z"/>
		<path fill="#FFFFFF" d="M421.9,266.5l1.1-3.1c-0.8-0.4-1.2-1-1.2-2c0-0.6,0.2-1.2,0.7-1.6c0.4-0.4,0.9-0.6,1.5-0.6
			c0.6,0,1.1,0.2,1.6,0.6c0.4,0.4,0.7,0.9,0.7,1.5c0,0.6-0.3,1.3-0.8,2.2l-1.8,2.9H421.9z"/>
		<path fill="#FFFFFF" d="M444.5,250.7c0.6-0.8,0.9-1.6,0.9-2.5s-0.3-1.5-0.9-2.1c-0.6-0.6-1.4-0.9-2.4-0.9c-1.7,0-3.1,0.9-4.2,2.6
			l-2.8-1.6c0.9-1.4,1.9-2.4,3-3.1c1.1-0.7,2.5-1,4.2-1c1.7,0,3.3,0.5,4.6,1.6c1.3,1.1,2,2.6,2,4.5c0,1.1-0.3,2.1-0.8,3.1
			c-0.6,1-1.6,2.2-3.1,3.7l-4.9,5h9.4v3.4h-14.2v-3l6.3-6.3C442.9,252.7,443.9,251.6,444.5,250.7z"/>
		<path fill="#FFFFFF" d="M454.3,260.7c-1.4-1.9-2.1-4.6-2.1-7.8c0-3.3,0.7-5.9,2.1-7.8c1.4-1.9,3.5-2.9,6.4-2.9s4.9,1,6.4,2.9
			c1.4,1.9,2.1,4.6,2.1,7.8c0,3.3-0.7,5.9-2.1,7.8c-1.4,1.9-3.5,2.9-6.4,2.9S455.7,262.7,454.3,260.7z M456.8,247.3
			c-0.8,1.4-1.2,3.3-1.2,5.6s0.4,4.2,1.2,5.6c0.8,1.4,2.1,2.1,3.8,2.1s3-0.7,3.8-2.1c0.8-1.4,1.2-3.3,1.2-5.6s-0.4-4.2-1.2-5.6
			c-0.8-1.4-2.1-2.1-3.8-2.1S457.6,245.9,456.8,247.3z"/>
		<path fill="#FFFFFF" d="M472.5,242.6h7.5v20.7h-3.3v-17.6h-4.2V242.6z"/>
		<path fill="#FFFFFF" d="M501.2,244.4l-1.8,2.6c-0.5-0.4-1.1-0.8-1.8-1.1c-0.8-0.3-1.4-0.5-2-0.5c-1.8,0-3.2,0.6-4.1,1.9
			c-0.9,1.2-1.3,2.9-1.3,5c0.5-0.6,1.2-1.1,2.1-1.6c0.9-0.5,2-0.7,3.1-0.7c1.9,0,3.4,0.6,4.7,1.9c1.3,1.2,1.9,2.9,1.9,4.9
			c0,2-0.7,3.7-2,4.9c-1.4,1.2-3.1,1.9-5.1,1.9c-3.3,0-5.6-1.5-6.9-4.5c-0.7-1.7-1.1-3.6-1.1-5.8c0-2.1,0.2-3.9,0.7-5.3
			c0.5-1.4,1.1-2.6,1.9-3.4c1.5-1.6,3.4-2.4,5.7-2.4C497.3,242.3,499.4,243,501.2,244.4z M494.9,253.1c-1.2,0-2.2,0.3-3,1
			c-0.8,0.7-1.2,1.5-1.2,2.6c0,1.1,0.4,2,1.2,2.7c0.8,0.8,1.7,1.1,2.9,1.1c1.2,0,2.1-0.3,2.9-1c0.8-0.7,1.2-1.6,1.2-2.6
			c0-1.1-0.4-2-1.1-2.7S496.1,253.1,494.9,253.1z"/>
	</g>
</g>
</svg>
