<?xml version="1.0" encoding="utf-8"?>
<!-- Generator: Adobe Illustrator 18.1.1, SVG Export Plug-In . SVG Version: 6.00 Build 0)  -->
<svg version="1.1" id="Layer_1" xmlns="http://www.w3.org/2000/svg" xmlns:xlink="http://www.w3.org/1999/xlink" x="0px" y="0px"
	 viewBox="0 0 596 664" enable-background="new 0 0 596 664" xml:space="preserve">
<g>
	<path fill="#EAAC47" d="M545.3,160.8h-14.4v3h-1.8v-3.8l-11.4-0.6v-0.8h-2.2v0.7h-1.6l-4.7,1.2v3.9h-4.5v2l-2-0.1v-2.1l-4.5-0.8
		v-2.6h-7.6v2.3h-5v2.1h-4.1v24h-13.1v-15.3l-9.9,0l-1.7-25.8l-4-1.2l-1.4-38.2l-0.8,36.5h-8.9l-1.2-37.5l-1,39.7l-3.9,0.5
		l-2.2,41.3l-17.3,0v-3.2h-0.9V182l-2.4-2.5l-1.9,2.6v2.4h-1.8v-3l-2.3-2.8l-1.9,3.1v3.1h-1.8v-3.4l-2-3l-2.2,3.5v2.8h-3.3v1.3h-3.1
		v16l0,16.6l-5.3,0V82.7l-4.9-1.7l-13.1-4.4l-16.7,1.4v1.8l-9.6,0.6v129.4l-7.3,0.2v-54.2h-1.1v-2.2h-1.1v-2.3h-1v-2.7h-0.8v-4
		l-10.8-16.8l-1.2-16.6l-0.8,16.9l-11.1,17.7v3.3l-0.9,0l0.1,2.1H306l0,2.2l-0.9-0.1l0.1,2.5l-1.2,0v24.5l-4.2-0.1v-2l-17.1,0
		l-0.1-28.7h-0.8v1.6h-3.3v-5.3h-2v-1.2h-1.4l-0.7-18.7l-0.4,18.7H273l-0.7-18.7l-0.4,18.7h-0.3v2.3h-5.9v-1.9h-2.1l-1.6,0.3
		l-0.7-19.4l-0.4,19.6l-1.3,0.2l-0.7-19.8l-0.4,20l-3.2,0.5v5.6l-3.2,0.2v-1.6h-0.9v10.7h-0.5v24.5l-1,1.7v21.2h-2.2v-1.4l-1.3-1.3
		v-17.7h-1.8v-7h-2.2V180h-4.8v1.3h-1.2v-1.4h-3.9v1l-1,0.1v-1.3l-4.3-0.4v1c0,0-2.7-0.6-3.8,0.4c-1,1-9.2,0.4-9.2,0.4v0.9h-2.8
		v32.6l-21.5,0l-0.3-67.7l-6.1-0.1l0.1-48.1l-5.3-1.4l-1.2-35.8l-2.6-1.1l-0.8-23.2l-0.5,23h-1V58l-1.7-1.1l-1.5-41l-0.9,40l-4.9,0
		l-1.4-40l-0.9,41.3l-1.6,0.8V60l-1.3,0.4l-0.9-24.8l-0.5,25.2l-2.4,0.7v36l-5,1.2v48.4l-5.2,0.1v58.6h-22.1v-30.6h-8.5v-34.6h-1.7
		v-4.7h-1.2v-2.7h-3.1v2.1h-1.7V129c-5-1.8-10,0-10,0v6.1h-1.6V133h-2.7v2.6h-1.4v4.8h-1.6v33.3l-3.2,1v11.3L65.5,189v16.5H54.4v3.7
		V256v370.9h131V564h-71.8l-0.1-308.5l382.7,0.5v307.7h-72.6v63.8h132.5V256v-44.1v-22.4l-0.1-25.9L545.3,160.8z"/>
	<g>
		<path fill="#FFFFFF" d="M230,621.1l21.3-27.5c0.8-1.1,1.4-2.1,1.7-3.1c0.2-0.9,0.3-1.8,0.3-2.6c0-2.1-0.6-4-1.9-5.5
			c-1.3-1.6-3.2-2.4-5.6-2.4c-2.1,0-3.9,0.7-5.4,2.1c-1.5,1.4-2.3,3.4-2.6,6H230c0.2-4.7,1.7-8.5,4.6-11.6c2.9-3,6.4-4.5,10.6-4.5
			c4.7,0.1,8.5,1.6,11.4,4.6c3,3,4.5,6.8,4.5,11.5c0,3.7-1.1,7-3.3,9.9l-17.5,22.7H261v8H230V621.1z"/>
		<path fill="#FFFFFF" d="M268.3,588.1c0-5.2,1.7-9.2,4.8-12c3-2.8,6.5-4.2,10.6-4.2c4.2,0,7.8,1.4,10.8,4.2c3,2.8,4.6,6.8,4.7,12
			v24.8c-0.1,5.2-1.7,9.2-4.7,12c-3,2.8-6.6,4.2-10.8,4.2c-4.1-0.1-7.7-1.5-10.6-4.2c-3.2-2.8-4.8-6.8-4.8-11.9V588.1z M291.5,588.6
			c-0.2-5.6-2.7-8.5-7.7-8.6c-5,0.1-7.6,3-7.7,8.6v23.9c0.1,5.7,2.7,8.6,7.7,8.6c5-0.1,7.5-2.9,7.7-8.6V588.6z"/>
		<path fill="#FFFFFF" d="M318.2,580.9l-7.7,5.9v-8.6l7.7-5.8h7.8v56.2h-7.8V580.9z"/>
		<path fill="#FFFFFF" d="M344.1,588.1c0-5.2,1.7-9.2,4.8-12c3-2.8,6.5-4.2,10.6-4.2c3.7,0,7,1.1,9.8,3.2c2.8,2.2,4.6,5.4,5.3,9.5
			h-8.1c-1.2-3.1-3.6-4.7-7.2-4.7c-5,0.1-7.5,3-7.6,8.6v5.3c3.7-1.2,7.2-1.8,10.4-1.7c3.6,0,6.6,1.2,9.1,3.7
			c2.4,2.5,3.6,6.5,3.6,11.9v5.1c-0.1,5.2-1.7,9.2-4.7,12c-3,2.8-6.6,4.2-10.8,4.2c-4.1-0.1-7.7-1.5-10.6-4.2
			c-3.2-2.8-4.8-6.8-4.8-11.9V588.1z M351.9,612.5c0.1,5.7,2.7,8.6,7.7,8.6c5-0.1,7.5-2.9,7.7-8.6v-4.6c-0.2-5.6-2.7-8.5-7.7-8.6
			c-5,0.1-7.6,3-7.7,8.6V612.5z"/>
		<path fill="#FFFFFF" d="M120.6,225.3c0,0,14.5-10.2,20.5,3.4c4.4,10.1-7.2,34-13.6,45.9c-0.5,0.9,0.7,1.8,1.5,1
			c9.5-10.5,28.7-31.4,33.4-34.5c6.4-4.3,19.6-6.8,19.2,8.9c0,0-4.5,11.5-4.5,13.8c0,3.1,36.9-59.2,41.5-64.6c0,0,16.2-14.5,20.9,0
			c0,0-41.3,70.7-61.8,105.7c0,0-24.3-2.6-22.6-12.8s0-18.8-1.3-18.8c-1.3,0-22.6,31.5-22.6,31.5s-2.6,8.5-26.8-2.1
			c0,0-7.2-11.1,0-21.7C111.6,270.5,117.6,245.7,120.6,225.3z"/>
		<path fill="#FFFFFF" d="M227.5,297.1l17.5,6.8c0,0,11.1-62.2,57.7-73.1c0,0,7.2-12.1-14.1-7.2c-21.3,4.9-23,13-23,13
			s-2.6,4.7-7.1-1.1c-4.5-5.8-14.9,1.5-12.1,6.2c0,0,2.1,3.4,0.9,6.8C246,251.9,224.5,292.8,227.5,297.1z"/>
		<path fill="#FFFFFF" d="M394.7,231.3c0,0-26,5.8-22.6,10.9c3.4,5.1,16,1.5,16,1.5s4.7-0.4-0.2,4.7c-4.9,5.1-27.7,30.9-19.2,41.3
			c8.5,10.4,26,8.1,28.3,7c2.3-1.1,33.5-26.6,13.4-26.4c0,0-25.1,18.5-21.5,8.3s14.1-41.3,44.5-42c0,0,9.8-8.9-9.6-8.3
			c0,0-12.4,1.9-12.8,4.3c0,0-5.1,2.3,10.7-15.6s-9.4-14.1-11.1-10.9C409,209.3,393,228.1,394.7,231.3z"/>
		<path fill="#FFFFFF" d="M213.6,335.8c0,0,12.4,0.7,8.3-7.6c-4.1-8.3-5.5-11-28.2-6.2c-22.7,4.8-90.2,37.2-75,46.8
			c15.1,9.6,22,7.6,28.9,6.9c6.9-0.7,47.5-14.5,36.5,8.3c-11,22.7-88.8,28.9-84,14.5s-17.9-5.8-15.8,7.8c2.1,13.6,44.1,25.7,97.1,0
			c53-25.7,25.5-40.1,25.5-40.1s-9.6-15.1-53.3-4.1C153.4,361.9,137.2,350.9,213.6,335.8z"/>
		<path fill="#FFFFFF" d="M282.5,357.8c0,0-35.3,27.6-33,20.3c2-6.5,14.8-18.6,14.8-18.6C294.2,343.3,282.5,357.8,282.5,357.8z
			 M265.1,338.5c0,0-2.8-11.7-20.3,5.5c0,0-7.8,17.4-16.1,21.8s-37.2,41.5-29.6,62.2c0,0,14.1,11.7,19.4,6.2s15.6-26.2,12.9-30.3
			s1,8.3,58-28.9c0,0,24-18.6,12.3-29.6C290.1,334.4,293.2,338.5,265.1,338.5z"/>
		<path fill="#FFFFFF" d="M427.7,363.3c-10.3,3.7-15.3,33.8-8.4,31.7c6.8-2.1,17.9,17.2,0,12.4s-16.5-14.5-16.5-14.5
			s-1.4,4.1-14.5,9.8c-16.2,7-21.4-1.5-23.4-7.7c-7.2-21.7,27.1-52.1,43.8-53.6c22-2,18.2,7.9,18.2,7.9
			C437.2,346.2,437.9,359.6,427.7,363.3z M406.9,361.9c0,0-1.2-11.9-24.1,20.5C367.7,403.7,407.6,370.2,406.9,361.9z"/>
		<path fill="#FFFFFF" d="M473.6,365.8l15.1-29c0,0,4.3-19-18-11.4c-4,1.4-6.9,24.7-23.4,47.1c-16.5,22.4-23.3,33.4-7.5,41
			c0,0,5.3,1.3,7.5-5.2c2.2-6.5,6.6-18.2,12.6-12.7c6,5.5,4,23.4,61.1,0.7c0,0,15.1-12.7,0-11.2c-15.1,1.6-20.7,8.4-41.7,7.1
			c-14.8-1-10.1-3.8,0-9.8c10.1-6,25.9-13.7,25.9-13.7s12.7-5.5,5.3-16.8c0,0-4.7-6.7-21.2,7.9C477.4,370.5,473.6,365.8,473.6,365.8
			z"/>
		<path fill="#FFFFFF" d="M229.6,540.8c-8.6-6.4-5.7-30,30-50.1c35.8-20,41.5-7.2,41.5-7.2V505C257.5,562.9,238.2,547.2,229.6,540.8
			z M282.6,502.2c0,0-18.6,5-26.5,20C248.2,537.2,274,515.7,282.6,502.2z"/>
		<path fill="#FFFFFF" d="M203.1,494.3c0,0,0.2,10-12.1,5.7c-12.3-4.3-15.1-9.3-13-15.7c2.1-6.4-36.5,15-58.7,56.5
			c0,0-11.4,22.1,90.1-27.2c0,0,20-6.2,0,13.7c-20,19.9-84.5,41.4-90.5,29.2l-12.5-8.8c0,0-13.6-3.8-4.3-20.4
			c9.3-16.6,77.2-78.8,98.7-52.3L203.1,494.3z"/>
		<path fill="#FFFFFF" d="M386.7,514.7c-13.1,4-24.1,20.3-19.6,32.9c4.4,12.6-16.9-2.4-16.9-2.4v-5.9c-11.7,7.2-11.9,8.6-36.7,0
			s23.4-44.3,40.6-55.8s24.3-4.1,24.3-4.1s18.6-29.5,25.8-36c7.2-6.4-1.5-15,14.3-19.2c15.8-4.2,12.9,5.6,11.4,15
			c-1.4,9.4-43.1,57.8-43.1,57.8S399.8,510.7,386.7,514.7z M364.3,502.2c0,0-30.1,13.8-30.6,25.2
			C333.2,538.6,364.3,502.2,364.3,502.2z"/>
		<path fill="#FFFFFF" d="M519.5,508.8c9.3,15.7-32.9,30.8-52.2,42.7s-42.2,2.4-57.1-16.2c-14.9-18.6,30-60.8,43.5-61.5
			s32.9-3.6,25.7,20.7c-7.2,24.3-43.6,40.8-43.6,40.8C435.8,555.3,519.5,508.8,519.5,508.8z M432.6,515c0,0-0.1,2.7,2.5,0.9
			c10.7-7.3,36.9-26,26.4-27.2C444.5,486.9,432.6,515,432.6,515z"/>
		<path fill="#FFFFFF" d="M460.5,287.5c17.6,0.4,40.9-15.3,49.9-15.3s14.7,16.6-30,25.5s-44.1-13.4-26.8-47.1
			c17.3-33.8,83.7-35.3,54.3-5.9s-47.3,25.1-47.3,25.1S442.9,287.1,460.5,287.5z M468.2,256.8c0,0,39.6-17.9,24.3-16.6
			C477.2,241.5,460.7,260.4,468.2,256.8z"/>
		<path fill="#FFFFFF" d="M325.7,389.7c-9.2,7.6,13.3,5.5,21.2-5s13.4-6.7,13.4-6.7s4.8,2.1-16.5,21.3c-21.3,19.3-42.3,0-42.3,0
			s-11.4-22,15.4-47.9s38-10.6,38-10.6c10.3,22.7-15.5,37.9-15.5,37.9S334.9,382.1,325.7,389.7z M323.6,372.1
			c0,0,27.4-21.8,14.1-19.6C329.4,353.9,317.1,374.9,323.6,372.1"/>
		<g>
			<path fill="#FFFFFF" d="M326.4,297.3c0,0-7.9-21.1,18.3-47.9c26.2-26.8-12.6-30.5-16.2-14.3c0,0-24.1,43.5-14.1,60.7
				C324.5,313.1,326.4,297.3,326.4,297.3z"/>
			<path fill="#FFFFFF" d="M371.5,207.3c0,0,9.6-2-2.2-13c0,0-2.7,2-6.6-1.3c-3.8-3.3-21.1,4.7-8.2,12.1
				C367.4,212.6,371.5,207.3,371.5,207.3z"/>
		</g>
	</g>
</g>
</svg>
